HIERARCHY
ROOT hip
{
	OFFSET 0.000000 0.000000 0.000000 
	CHANNELS 6 Xposition Yposition Zposition Xrotation Zrotation Yrotation
	JOINT abdomen
	{
		OFFSET 0.000000 3.402643 0.000000 
		CHANNELS 3 Xrotation Zrotation Yrotation
		JOINT chest
		{
			OFFSET 0.000000 8.438565 -0.680529 
			CHANNELS 3 Xrotation Zrotation Yrotation
			JOINT neck
			{
				OFFSET 0.000000 10.207942 -0.272212 
				CHANNELS 3 Xrotation Zrotation Yrotation
				JOINT head
				{
					OFFSET 0.000000 3.130431 0.000000 
					CHANNELS 3 Xrotation Zrotation Yrotation
					End Site
					{
						OFFSET 0.000000 3.130435 0.000000 
					}
				}
			}
			JOINT lCollar
			{
				OFFSET 3.470700 6.669187 -0.816635 
				CHANNELS 3 Yrotation Zrotation Xrotation
				JOINT lShldr
				{
					OFFSET 3.198488 0.000000 0.000000 
					CHANNELS 3 Zrotation Yrotation Xrotation
					JOINT lForeArm
					{
						OFFSET 10.139888 0.000000 0.000000 
						CHANNELS 3 Yrotation Zrotation Xrotation
						JOINT lHand
						{
							OFFSET 8.370511 0.000000 0.000000 
							CHANNELS 3 Zrotation Yrotation Xrotation
							End Site
							{
								OFFSET 4.083176 0.000000 0.000000 
							}
						}
					}
				}
			}
			JOINT rCollar
			{
				OFFSET -3.470700 6.669187 -0.816635 
				CHANNELS 3 Yrotation Zrotation Xrotation
				JOINT rShldr
				{
					OFFSET -3.198488 0.000000 0.000000 
					CHANNELS 3 Zrotation Yrotation Xrotation
					JOINT rForeArm
					{
						OFFSET -10.139888 0.000000 0.000000 
						CHANNELS 3 Yrotation Zrotation Xrotation
						JOINT rHand
						{
							OFFSET -8.370511 0.000000 0.000000 
							CHANNELS 3 Zrotation Yrotation Xrotation
							End Site
							{
								OFFSET -4.083176 0.000000 0.000000 
							}
						}
					}
				}
			}
		}
	}
	JOINT lThigh
	{
		OFFSET 5.308129 -1.633274 1.361059 
		CHANNELS 3 Xrotation Zrotation Yrotation
		JOINT lShin
		{
			OFFSET -2.041588 -20.007561 0.000000 
			CHANNELS 3 Xrotation Zrotation Yrotation
			JOINT lFoot
			{
				OFFSET 0.000000 -19.190928 -1.224953 
				CHANNELS 3 Xrotation Yrotation Zrotation
				End Site
				{
					OFFSET 0.000000 -2.449906 4.627600 
				}
			}
		}
	}
	JOINT rThigh
	{
		OFFSET -5.308129 -1.633274 1.361059 
		CHANNELS 3 Xrotation Zrotation Yrotation
		JOINT rShin
		{
			OFFSET 2.041588 -20.007561 0.000000 
			CHANNELS 3 Xrotation Zrotation Yrotation
			JOINT rFoot
			{
				OFFSET 0.000000 -19.190928 -1.224953 
				CHANNELS 3 Xrotation Yrotation Zrotation
				End Site
				{
					OFFSET 0.000000 -2.449906 4.627600 
				}
			}
		}
	}
}
MOTION
Frames: 16
Frame Time: 0.033333
-6.403311 47.286293 10.708138 -12.077662 -4.431354 -7.315125 0.000000 0.000000 0.000000 14.532212 -0.652272 -2.718005 9.045948 4.967886 -0.103504 2.594600 -9.411830 7.587220 -11.304207 -9.269170 12.953902 -51.684128 -22.017941 53.123707 -107.229408 13.312336 8.490397 -24.209761 -3.379782 -1.940518 -0.278610 -0.969500 13.784662 -11.534642 -14.919231 -58.175426 95.196976 12.249014 -19.476431 -30.915720 4.319889 -5.508385 -2.079404 6.569843 4.220106 37.192448 -1.418141 -1.489814 -22.371424 0.148528 -0.663869 -18.678667 -6.190357 -3.981119 43.073273 1.562379 -2.160632 5.210416 0.215852 4.926811 
-6.707978 47.990528 10.343142 -11.164389 -4.282936 -7.759257 0.000000 0.000000 0.000000 11.379311 -1.158419 -3.094604 9.496336 5.750293 0.050080 1.200964 -10.606265 8.860073 -12.082306 -7.441715 10.137868 -53.279236 -19.341587 57.625061 -113.413246 16.887068 13.650511 -22.181524 -3.464560 -2.042988 -2.258349 -5.905699 10.875989 -15.538390 -11.876266 -54.787395 94.070587 11.009685 -19.229416 -26.835150 6.278529 -5.659716 -0.888233 6.750628 4.127537 31.827728 -1.715505 -1.517909 -19.078642 0.177334 -0.922658 -17.025354 -7.019047 -3.767428 48.514751 0.534773 -0.360395 5.728747 0.322054 7.062508 
-7.114829 48.529007 9.997200 -10.243689 -3.478946 -7.438683 0.000000 0.000000 0.000000 8.257421 -2.077862 -3.670778 10.165955 6.345969 0.113255 -1.135117 -12.065201 10.667366 -12.865740 -5.434254 7.340311 -54.379345 -16.285402 60.064808 -120.378174 19.096605 16.644712 -21.886604 -4.109744 -1.929124 -4.260270 -10.219470 7.845598 -17.406059 -11.716551 -56.247253 93.831367 11.672675 -19.009935 -28.501717 7.192238 -6.024571 0.223634 6.614342 3.810136 26.727402 -1.996151 -2.060724 -16.086241 0.178459 -1.270299 -15.037435 -8.485527 -3.798984 52.588631 -0.566457 -0.038635 8.959199 0.740713 9.463597 
-7.651548 48.964172 9.628115 -8.652490 -2.732266 -6.039472 0.000000 0.000000 0.000000 4.908856 -2.948150 -4.100915 10.396248 6.998262 0.130440 -2.646345 -13.658737 12.227963 -12.115652 -2.177829 4.518492 -57.919281 -13.800455 63.941574 -126.732643 20.016321 13.411929 -21.079998 -3.917192 -2.021978 -7.780023 -16.061916 4.186556 -11.548150 -12.203436 -65.095352 93.368523 14.748760 -19.772272 -29.344425 9.759526 -6.735560 0.428669 7.005114 3.489796 21.877851 -2.102758 -4.359742 -13.228127 0.174242 -1.603111 -14.235307 -9.353376 -4.366333 56.674721 -0.888641 0.458879 15.729345 1.023154 7.427874 
-8.321160 49.299671 9.192183 -7.650877 -1.935751 -3.148369 0.000000 0.000000 0.000000 2.321453 -4.449485 -5.453848 10.839630 7.605034 -0.745781 -4.033106 -15.034892 14.097466 -12.819000 -1.095662 2.006130 -59.426792 -10.017109 63.431633 -133.654022 19.504627 10.687536 -22.478830 -4.587803 -1.785271 -11.670308 -19.982359 0.942997 -2.800739 -12.956719 -76.312218 90.254723 18.128609 -21.672855 -36.761162 10.036777 -7.748183 0.790259 7.460883 3.115291 17.013952 -1.975303 -7.843026 -10.103812 0.200473 -2.226447 -10.796491 -10.571110 -5.726599 56.900158 -0.566287 1.447987 23.876600 2.068215 9.801826 
-9.023238 49.547195 8.675710 -6.243085 -1.727979 0.393996 0.000000 0.000000 0.000000 -0.088345 -5.810540 -6.905164 10.690418 7.908551 -2.452456 -4.876005 -16.130295 15.029830 -13.373203 -4.227455 -0.624378 -57.713406 -7.814207 62.505634 -141.524704 18.643335 10.344462 -21.284624 -3.064139 -2.182134 -11.179361 -14.974423 -0.895569 -2.680175 -20.571678 -84.079803 82.533104 19.650694 -23.948101 -44.338451 10.364981 -8.867148 0.233643 8.146202 2.690664 12.585135 -1.583824 -10.995546 -6.992194 0.187807 -3.229848 -6.930977 -11.087930 -7.700461 55.101131 0.576239 3.625580 29.587072 3.212001 12.031044 
-9.697503 49.705887 8.103293 -4.113929 -2.035761 3.476377 0.000000 0.000000 0.000000 -2.662535 -6.292082 -7.150083 9.245772 7.024327 -4.346406 -4.612469 -16.739027 13.321689 -12.950583 -8.961644 -3.250880 -54.562138 -9.511375 57.662521 -146.385101 16.608196 7.331601 -18.596628 -2.471868 -2.449478 -8.725635 -6.633973 -2.718821 -7.065176 -30.828943 -84.337090 70.128448 16.302032 -22.765427 -53.054779 10.681336 -10.260898 -1.337671 8.813166 1.858694 8.539009 -0.812988 -13.092376 -4.166925 0.167153 -4.695044 -3.241904 -10.562770 -9.838437 49.797211 2.167668 0.999355 36.245083 4.611463 14.019383 
-10.382732 49.803291 7.388413 -2.169424 -2.098106 6.173158 0.000000 0.000000 0.000000 -4.900159 -7.025269 -5.962660 8.035940 5.847971 -6.087387 -2.662680 -17.105930 10.001876 -12.078514 -10.936378 -5.397074 -54.070675 -12.277192 50.567356 -148.110184 13.905907 -2.025022 -16.133444 -4.410146 -2.273741 -7.012893 -3.255612 -4.635139 -4.422310 -39.255226 -81.615349 58.735023 9.751742 -29.151423 -60.358116 10.842611 -11.492064 -2.723998 9.450738 1.895357 4.219681 -1.124066 -15.567506 -0.939661 0.067108 -5.473914 0.223354 -9.633839 -11.075869 43.586052 4.127651 0.812033 35.852730 4.348025 13.391234 
-11.100275 49.713940 6.443989 -0.830357 -1.484219 7.482439 0.000000 0.000000 0.000000 -5.748882 -8.628919 -4.750869 6.553377 6.199918 -6.151574 -2.167629 -19.501509 10.368972 -10.039163 -7.331691 -5.951636 -59.343613 -16.737045 47.039650 -149.255432 11.868241 -10.943186 -13.965150 -1.945288 -2.758888 -5.377291 -0.545860 -5.343305 2.967080 -42.525745 -78.659264 48.004181 0.428373 -46.123638 -64.504982 8.297615 -10.621912 -5.143796 9.438021 1.423204 3.528730 -1.358419 -16.602486 0.524840 -0.015788 -5.531368 1.960027 -8.899021 -11.430281 42.093494 5.319325 2.475613 18.135181 1.209234 7.555724 
-11.802910 49.610245 5.319339 0.498287 -1.777277 7.689328 0.000000 0.000000 0.000000 -7.540155 -9.256614 -3.292145 8.771944 6.371469 -4.163767 -10.236045 -16.288971 11.569608 -12.614639 -4.815222 -7.807815 -62.187840 -16.613432 44.630676 -149.465271 11.215960 -5.691411 -17.109379 -1.497052 -2.681391 -2.070613 -0.057059 -6.711909 14.744830 -43.881493 -74.589706 41.172279 -7.362946 -60.099838 -66.883827 7.087170 -10.195897 -8.551089 9.937130 1.063616 4.017962 -1.387570 -15.630007 2.010629 -0.088191 -5.229319 4.078970 -6.646461 -10.143901 37.212234 5.759060 3.646950 6.537831 0.181283 3.052406 
-12.466493 49.471947 4.044915 0.488882 -2.841694 7.377651 0.000000 0.000000 0.000000 -7.744518 -8.632687 -4.133374 8.948444 5.368163 -4.664664 -7.934669 -13.276730 9.388286 -9.767380 -5.628393 -7.657674 -63.182732 -18.133797 50.712521 -149.177994 12.887592 -2.544198 -16.719875 0.511889 -3.028610 0.534929 1.677320 -6.839401 27.769102 -41.670036 -71.192932 39.266468 -9.201753 -67.702972 -68.169250 5.721200 -9.467112 -10.474087 11.254941 0.975448 4.399261 -0.578123 -15.996525 3.055547 -0.143439 -6.325545 6.750435 -3.951217 -8.721051 31.306862 6.105992 3.095605 -1.332950 0.003357 1.218249 
-13.131736 49.108391 2.617138 -0.313268 -4.013612 6.467185 0.000000 0.000000 0.000000 -7.344303 -5.937568 -4.665872 10.242102 0.726166 -4.038620 -6.861920 -5.921774 5.189070 -9.757505 -15.695659 -7.456266 -52.593292 -19.440809 47.516479 -149.413666 12.938141 -7.016095 -15.725168 -1.197746 -2.786205 0.749211 -2.010303 -6.318772 47.113964 -35.296745 -75.300011 48.107445 -6.766114 -66.325233 -70.233154 1.787978 -7.033649 -12.084946 13.012196 1.100402 5.628005 0.250262 -16.131205 3.811619 -0.302107 -8.754597 9.055086 -1.454752 -7.349045 26.170000 6.443883 0.662626 -8.322792 -0.099029 1.006569 
-13.782219 48.771637 1.002925 -0.596935 -3.681441 4.540204 0.000000 0.000000 0.000000 -6.587641 -4.996260 -2.930103 11.295457 -2.016137 -2.834709 -9.860488 -1.546949 2.332663 -10.506292 -23.422483 -7.481018 -45.197792 -23.069429 43.635654 -149.460114 12.485555 -13.354104 -12.279902 -2.907431 -2.724261 6.557943 2.191831 -5.605608 54.933720 -31.756588 -74.182968 53.684090 -4.655946 -66.651283 -73.176086 3.462023 -8.439729 -15.045413 13.385666 0.573365 8.685207 0.699119 -14.978273 4.073929 -0.285967 -7.875846 9.075469 -0.761569 -6.347919 23.671125 5.922472 0.920033 -13.798697 0.004117 -0.140152 
-14.292778 48.457279 -0.475341 -2.250959 -3.766631 3.633956 0.000000 0.000000 0.000000 -3.555960 -4.512815 -0.237530 9.852675 -1.160489 -1.889137 -8.268165 -1.560698 0.619573 -7.734634 -24.310118 -4.422915 -46.903229 -29.588360 43.649601 -147.251984 12.454187 -17.873426 -15.656527 -4.566882 -2.280298 12.507348 13.113883 -3.705523 55.126072 -28.320158 -68.869499 59.674419 -2.836076 -63.171124 -69.332092 1.770093 -6.957176 -13.622787 13.700870 0.622290 5.775588 1.343691 -12.707973 7.451452 -0.637215 -9.742413 11.020859 0.389867 -5.346950 19.904589 5.581602 -1.037332 -17.607382 0.028231 -0.106043 
-14.726910 48.253281 -1.840674 -3.542722 -3.742854 2.408798 0.000000 0.000000 0.000000 -0.665800 -4.140346 3.651463 6.789111 0.159631 -1.215909 -2.611099 -2.787621 -1.996539 -4.183710 -20.904411 -1.277162 -54.672913 -35.564579 44.586742 -144.572342 11.864430 -21.380392 -17.567934 -6.625842 -1.797055 18.154858 22.133789 -2.138701 52.223328 -24.216461 -60.546692 64.278618 -0.524975 -60.717228 -67.252777 1.943866 -6.937307 -13.649880 13.942817 0.567177 5.837471 1.844260 -12.509531 8.692570 -0.707330 -9.281084 11.680532 0.731315 -4.707530 18.121790 5.208885 -0.811307 -19.823036 0.101127 -0.544045 
-15.075872 48.101261 -3.108768 -4.186125 -3.175118 1.071760 0.000000 0.000000 0.000000 1.459178 -4.295487 7.351196 4.003938 1.380919 -0.352453 1.596935 -3.663914 -4.276875 0.324324 -16.277899 1.336603 -63.318737 -39.836510 43.896278 -142.122025 10.536386 -23.427870 -18.787262 -7.951252 -1.452323 21.817522 25.000000 -0.564307 49.628208 -18.204185 -50.126480 69.951172 1.689381 -66.520119 -61.685387 -1.515669 -4.589941 -14.127215 13.551249 0.203360 5.566768 1.971719 -10.029335 11.551783 -0.883272 -8.652910 11.729534 0.428690 -4.656197 16.388788 5.103370 -0.738318 -21.519756 0.181160 -0.969398 
